<svg version="1.1" viewBox="0.0 0.0 1000.0 200.0" fill="none" stroke="none" stroke-linecap="square" stroke-miterlimit="10" xmlns:xlink="http://www.w3.org/1999/xlink" xmlns="http://www.w3.org/2000/svg"><clipPath id="p.0"><path d="m0 0l1000.0 0l0 200.0l-1000.0 0l0 -200.0z" clip-rule="nonzero"/></clipPath><g clip-path="url(#p.0)"><path fill="#000000" fill-opacity="0.0" d="m0 0l1000.0 0l0 200.0l-1000.0 0z" fill-rule="evenodd"/><path fill="#000000" fill-opacity="0.0" d="m108.17073 70.850395l380.37793 0" fill-rule="evenodd"/><path stroke="#999999" stroke-width="8.0" stroke-linejoin="round" stroke-linecap="butt" d="m108.17073 70.850395l380.37793 0" fill-rule="evenodd"/><path fill="#000000" fill-opacity="0.0" d="m505.63522 99.797554l-24.629913 0" fill-rule="evenodd"/><path stroke="#999999" stroke-width="8.0" stroke-linejoin="round" stroke-linecap="butt" d="m505.63522 99.797554l-24.629913 0" fill-rule="evenodd"/><path fill="#000000" fill-opacity="0.0" d="m485.2018 66.52282l0 30.330711" fill-rule="evenodd"/><path stroke="#999999" stroke-width="8.0" stroke-linejoin="round" stroke-linecap="butt" d="m485.2018 66.52282l0 30.330711" fill-rule="evenodd"/><path fill="#000000" fill-opacity="0.0" d="m502.8512 158.25201l-502.86615 0" fill-rule="evenodd"/><path stroke="#999999" stroke-width="8.0" stroke-linejoin="round" stroke-linecap="butt" d="m502.8512 158.25201l-502.86615 0" fill-rule="evenodd"/><path fill="#000000" fill-opacity="0.0" d="m-3.4934384E-4 43.839893l36.503937 0" fill-rule="evenodd"/><path stroke="#999999" stroke-width="8.0" stroke-linejoin="round" stroke-linecap="butt" d="m-3.4934384E-4 43.839893l36.503937 0" fill-rule="evenodd"/><path fill="#000000" fill-opacity="0.0" d="m-3.4934384E-4 99.7979l36.503937 0" fill-rule="evenodd"/><path stroke="#999999" stroke-width="8.0" stroke-linejoin="round" stroke-linecap="butt" d="m-3.4934384E-4 99.7979l36.503937 0" fill-rule="evenodd"/><path fill="#ffffff" d="m40.706165 37.29134l33.73229 0l0 0c18.629822 0 33.732277 15.024899 33.732277 33.559055c0 18.53415 -15.102455 33.55905 -33.732277 33.55905l-33.73229 0z" fill-rule="evenodd"/><path stroke="#000000" stroke-width="8.0" stroke-linejoin="round" stroke-linecap="butt" d="m40.706165 37.29134l33.73229 0l0 0c18.629822 0 33.732277 15.024899 33.732277 33.559055c0 18.53415 -15.102455 33.55905 -33.732277 33.55905l-33.73229 0z" fill-rule="evenodd"/><path fill="#000000" fill-opacity="0.0" d="m741.4525 129.02362l-172.09448 0" fill-rule="evenodd"/><path stroke="#999999" stroke-width="8.0" stroke-linejoin="round" stroke-linecap="butt" d="m741.4525 129.02362l-172.09448 0" fill-rule="evenodd"/><path fill="#ffffff" d="m501.98795 95.338585l0 0c37.207428 0 67.37009 15.081306 67.37009 33.685036c0 18.60373 -30.162659 33.685043 -67.37009 33.685043l0 0c18.029144 -21.552032 18.029144 -45.818047 0 -67.37008z" fill-rule="evenodd"/><path stroke="#000000" stroke-width="8.0" stroke-linejoin="round" stroke-linecap="butt" d="m501.98795 95.338585l0 0c37.207428 0 67.37009 15.081306 67.37009 33.685036c0 18.60373 -30.162659 33.685043 -67.37009 33.685043l0 0c18.029144 -21.552032 18.029144 -45.818047 0 -67.37008z" fill-rule="evenodd"/><path fill="#000000" fill-opacity="0.0" d="m737.69525 100.00051l0 30.330711" fill-rule="evenodd"/><path stroke="#999999" stroke-width="8.0" stroke-linejoin="round" stroke-linecap="butt" d="m737.69525 100.00051l0 30.330711" fill-rule="evenodd"/><path fill="#000000" fill-opacity="0.0" d="m733.7454 99.58793l266.80316 0" fill-rule="evenodd"/><path stroke="#999999" stroke-width="8.0" stroke-linejoin="round" stroke-linecap="butt" d="m733.7454 99.58793l266.80316 0" fill-rule="evenodd"/></g></svg>