<svg version="1.1" viewBox="0.0 0.0 200.0 200.0" fill="none" stroke="none" stroke-linecap="square" stroke-miterlimit="10" xmlns:xlink="http://www.w3.org/1999/xlink" xmlns="http://www.w3.org/2000/svg"><clipPath id="p.0"><path d="m0 0l200.0 0l0 200.0l-200.0 0l0 -200.0z" clip-rule="nonzero"/></clipPath><g clip-path="url(#p.0)"><path fill="#000000" fill-opacity="0.0" d="m0 0l200.0 0l0 200.0l-200.0 0z" fill-rule="evenodd"/><path fill="#b7b7b7" d="m33.669292 59.614174l31.354328 125.41732l69.95276 0l31.354324 -125.41732z" fill-rule="evenodd"/><path stroke="#000000" stroke-width="8.0" stroke-linejoin="round" stroke-linecap="butt" d="m33.669292 59.614174l31.354328 125.41732l69.95276 0l31.354324 -125.41732z" fill-rule="evenodd"/><path fill="#000000" fill-opacity="0.0" d="m99.74803 85.28346l0 74.078735" fill-rule="evenodd"/><path stroke="#000000" stroke-width="8.0" stroke-linejoin="round" stroke-linecap="butt" d="m99.74803 85.28346l0 74.078735" fill-rule="evenodd"/><path fill="#000000" fill-opacity="0.0" d="m136.85301 86.205505l-16.850388 72.220474" fill-rule="evenodd"/><path stroke="#000000" stroke-width="8.0" stroke-linejoin="round" stroke-linecap="butt" d="m136.85301 86.205505l-16.850388 72.220474" fill-rule="evenodd"/><path fill="#000000" fill-opacity="0.0" d="m63.14698 87.29026l16.346458 70.04725" fill-rule="evenodd"/><path stroke="#000000" stroke-width="8.0" stroke-linejoin="round" stroke-linecap="butt" d="m63.14698 87.29026l16.346458 70.04725" fill-rule="evenodd"/><path fill="#b7b7b7" d="m90.125984 28.698162l0 -6.3464565l0 0c0 -3.5050507 4.3079376 -6.3464565 9.622047 -6.3464565c5.31411 0 9.622047 2.8414059 9.622047 6.3464565l0 6.3464565z" fill-rule="evenodd"/><path stroke="#000000" stroke-width="8.0" stroke-linejoin="round" stroke-linecap="butt" d="m90.125984 28.698162l0 -6.3464565l0 0c0 -3.5050507 4.3079376 -6.3464565 9.622047 -6.3464565c5.31411 0 9.622047 2.8414059 9.622047 6.3464565l0 6.3464565z" fill-rule="evenodd"/><path fill="#b7b7b7" d="m36.645668 32.569553l126.70866 0l0 15.181103l-126.70866 0z" fill-rule="evenodd"/><path stroke="#000000" stroke-width="8.0" stroke-linejoin="round" stroke-linecap="butt" d="m36.645668 32.569553l126.70866 0l0 15.181103l-126.70866 0z" fill-rule="evenodd"/></g></svg>