<svg version="1.1" viewBox="0.0 0.0 200.0 200.0" fill="none" stroke="none" stroke-linecap="square" stroke-miterlimit="10" xmlns:xlink="http://www.w3.org/1999/xlink" xmlns="http://www.w3.org/2000/svg"><clipPath id="p.0"><path d="m0 0l200.0 0l0 200.0l-200.0 0l0 -200.0z" clip-rule="nonzero"/></clipPath><g clip-path="url(#p.0)"><path fill="#000000" fill-opacity="0.0" d="m0 0l200.0 0l0 200.0l-200.0 0z" fill-rule="evenodd"/><path fill="#ffffff" d="m28.622047 28.393702l108.40945 71.6063l-108.40945 71.60629z" fill-rule="evenodd"/><path stroke="#000000" stroke-width="8.0" stroke-linejoin="round" stroke-linecap="butt" d="m28.622047 28.393702l108.40945 71.6063l-108.40945 71.60629z" fill-rule="evenodd"/><path fill="#ffffff" d="m137.0315 100.0l0 0c0 -9.549744 7.7415924 -17.291336 17.291336 -17.291336l0 0c4.5859528 0 8.98407 1.8217621 12.226822 5.064514c3.2427673 3.242752 5.064514 7.640877 5.064514 12.226822l0 0c0 9.549744 -7.7415924 17.291336 -17.291336 17.291336l0 0c-9.549744 0 -17.291336 -7.7415924 -17.291336 -17.291336z" fill-rule="evenodd"/><path stroke="#000000" stroke-width="8.0" stroke-linejoin="round" stroke-linecap="butt" d="m137.0315 100.0l0 0c0 -9.549744 7.7415924 -17.291336 17.291336 -17.291336l0 0c4.5859528 0 8.98407 1.8217621 12.226822 5.064514c3.2427673 3.242752 5.064514 7.640877 5.064514 12.226822l0 0c0 9.549744 -7.7415924 17.291336 -17.291336 17.291336l0 0c-9.549744 0 -17.291336 -7.7415924 -17.291336 -17.291336z" fill-rule="evenodd"/></g></svg>