<svg version="1.1" viewBox="0.0 0.0 200.0 200.0" fill="none" stroke="none" stroke-linecap="square" stroke-miterlimit="10" xmlns:xlink="http://www.w3.org/1999/xlink" xmlns="http://www.w3.org/2000/svg"><clipPath id="p.0"><path d="m0 0l200.0 0l0 200.0l-200.0 0l0 -200.0z" clip-rule="nonzero"/></clipPath><g clip-path="url(#p.0)"><path fill="#000000" fill-opacity="0.0" d="m0 0l200.0 0l0 200.0l-200.0 0z" fill-rule="evenodd"/><path fill="#ffffff" d="m28.648294 28.63517l0 0c78.10263 0 141.41731 31.833614 141.41731 71.10236c0 39.268753 -63.31469 71.102356 -141.41731 71.102356l0 0c37.84516 -45.49202 37.84516 -96.71269 0 -142.20471z" fill-rule="evenodd"/><path stroke="#000000" stroke-width="8.0" stroke-linejoin="round" stroke-linecap="butt" d="m28.648294 28.63517l0 0c78.10263 0 141.41731 31.833614 141.41731 71.10236c0 39.268753 -63.31469 71.102356 -141.41731 71.102356l0 0c37.84516 -45.49202 37.84516 -96.71269 0 -142.20471z" fill-rule="evenodd"/></g></svg>