<svg version="1.1" viewBox="0.0 0.0 200.0 200.0" fill="none" stroke="none" stroke-linecap="square" stroke-miterlimit="10" xmlns:xlink="http://www.w3.org/1999/xlink" xmlns="http://www.w3.org/2000/svg"><clipPath id="p.0"><path d="m0 0l200.0 0l0 200.0l-200.0 0l0 -200.0z" clip-rule="nonzero"/></clipPath><g clip-path="url(#p.0)"><path fill="#000000" fill-opacity="0.0" d="m0 0l200.0 0l0 200.0l-200.0 0z" fill-rule="evenodd"/><path fill="#000000" fill-opacity="0.0" d="m88.137794 70.850395l18.29921 0" fill-rule="evenodd"/><path stroke="#999999" stroke-width="8.0" stroke-linejoin="round" stroke-linecap="butt" d="m88.137794 70.850395l18.29921 0" fill-rule="evenodd"/><path fill="#000000" fill-opacity="0.0" d="m122.19029 99.797554l-22.708664 0" fill-rule="evenodd"/><path stroke="#999999" stroke-width="8.0" stroke-linejoin="round" stroke-linecap="butt" d="m122.19029 99.797554l-22.708664 0" fill-rule="evenodd"/><path fill="#000000" fill-opacity="0.0" d="m103.350395 66.52282l0 30.330711" fill-rule="evenodd"/><path stroke="#999999" stroke-width="8.0" stroke-linejoin="round" stroke-linecap="butt" d="m103.350395 66.52282l0 30.330711" fill-rule="evenodd"/><path fill="#000000" fill-opacity="0.0" d="m119.62336 158.25201l-116.40945 0" fill-rule="evenodd"/><path stroke="#999999" stroke-width="8.0" stroke-linejoin="round" stroke-linecap="butt" d="m119.62336 158.25201l-116.40945 0" fill-rule="evenodd"/><path fill="#000000" fill-opacity="0.0" d="m3.7493439 43.84039l18.299213 0" fill-rule="evenodd"/><path stroke="#999999" stroke-width="8.0" stroke-linejoin="round" stroke-linecap="butt" d="m3.7493439 43.84039l18.299213 0" fill-rule="evenodd"/><path fill="#000000" fill-opacity="0.0" d="m3.7493439 99.797554l18.299213 0" fill-rule="evenodd"/><path stroke="#999999" stroke-width="8.0" stroke-linejoin="round" stroke-linecap="butt" d="m3.7493439 99.797554l18.299213 0" fill-rule="evenodd"/><path fill="#ffffff" d="m25.933071 37.29134l31.102364 0l0 0c17.177357 0 31.10236 15.024899 31.10236 33.559055c0 18.53415 -13.925003 33.55905 -31.10236 33.55905l-31.102364 0z" fill-rule="evenodd"/><path stroke="#000000" stroke-width="8.0" stroke-linejoin="round" stroke-linecap="butt" d="m25.933071 37.29134l31.102364 0l0 0c17.177357 0 31.10236 15.024899 31.10236 33.559055c0 18.53415 -13.925003 33.55905 -31.10236 33.55905l-31.102364 0z" fill-rule="evenodd"/><path fill="#000000" fill-opacity="0.0" d="m196.78609 129.02362l-15.842514 0" fill-rule="evenodd"/><path stroke="#999999" stroke-width="8.0" stroke-linejoin="round" stroke-linecap="butt" d="m196.78609 129.02362l-15.842514 0" fill-rule="evenodd"/><path fill="#ffffff" d="m118.833336 95.338585l0 0c34.30253 0 62.110237 15.081306 62.110237 33.685036c0 18.60373 -27.807709 33.685043 -62.110237 33.685043l0 0c16.621529 -21.552032 16.621529 -45.818047 0 -67.37008z" fill-rule="evenodd"/><path stroke="#000000" stroke-width="8.0" stroke-linejoin="round" stroke-linecap="butt" d="m118.833336 95.338585l0 0c34.30253 0 62.110237 15.081306 62.110237 33.685036c0 18.60373 -27.807709 33.685043 -62.110237 33.685043l0 0c16.621529 -21.552032 16.621529 -45.818047 0 -67.37008z" fill-rule="evenodd"/></g></svg>