<svg version="1.1" viewBox="0.0 0.0 200.0 200.0" fill="none" stroke="none" stroke-linecap="square" stroke-miterlimit="10" xmlns:xlink="http://www.w3.org/1999/xlink" xmlns="http://www.w3.org/2000/svg"><clipPath id="p.0"><path d="m0 0l200.0 0l0 200.0l-200.0 0l0 -200.0z" clip-rule="nonzero"/></clipPath><g clip-path="url(#p.0)"><path fill="#000000" fill-opacity="0.0" d="m0 0l200.0 0l0 200.0l-200.0 0z" fill-rule="evenodd"/><path fill="#ffffff" d="m26.51 80.517l54.006996 0l0 -54.006996l38.966003 0l0 54.006996l54.007004 0l0 38.966003l-54.007004 0l0 54.007004l-38.966003 0l0 -54.007004l-54.006996 0z" fill-rule="evenodd"/><path stroke="#ffffff" stroke-width="1.0" stroke-linejoin="round" stroke-linecap="butt" d="m26.51 80.517l54.006996 0l0 -54.006996l38.966003 0l0 54.006996l54.007004 0l0 38.966003l-54.007004 0l0 54.007004l-38.966003 0l0 -54.007004l-54.006996 0z" fill-rule="evenodd"/></g></svg>