<svg version="1.1" viewBox="0.0 0.0 200.0 200.0" fill="none" stroke="none" stroke-linecap="square" stroke-miterlimit="10" xmlns:xlink="http://www.w3.org/1999/xlink" xmlns="http://www.w3.org/2000/svg"><clipPath id="p.0"><path d="m0 0l200.0 0l0 200.0l-200.0 0l0 -200.0z" clip-rule="nonzero"/></clipPath><g clip-path="url(#p.0)"><path fill="#000000" fill-opacity="0.0" d="m0 0l200.0 0l0 200.0l-200.0 0z" fill-rule="evenodd"/><path fill="#000000" fill-opacity="0.0" d="m170.64568 29.35433l-141.29135 141.29135" fill-rule="evenodd"/><path stroke="#000000" stroke-width="8.0" stroke-linejoin="round" stroke-linecap="butt" d="m149.20619 50.793808l-98.412384 98.412384" fill-rule="evenodd"/><path fill="#000000" stroke="#000000" stroke-width="8.0" stroke-linecap="butt" d="m167.81725 32.18276c5.1392975 5.1392975 5.1392975 13.471748 0 18.61105c-5.1392975 5.1392975 -13.471756 5.1392975 -18.611053 0c-5.1392975 -5.1393013 -5.1392975 -13.471752 0 -18.61105c5.1392975 -5.1392994 13.471756 -5.1392994 18.611053 0z" fill-rule="nonzero"/><path fill="#000000" stroke="#000000" stroke-width="8.0" stroke-linecap="butt" d="m32.18276 167.81725c-5.1392994 -5.1392975 -5.1392994 -13.471756 0 -18.611053c5.1392975 -5.1392975 13.471748 -5.1392975 18.61105 0c5.1392975 5.1392975 5.1392975 13.471756 0 18.611053c-5.1393013 5.1392975 -13.471752 5.1392975 -18.61105 0z" fill-rule="nonzero"/></g></svg>